<svg width="17" height="9" viewBox="0 0 17 9" fill="none" xmlns="http://www.w3.org/2000/svg">
<path d="M2.83333 5.20833C3.6125 5.20833 4.25 4.57083 4.25 3.79167C4.25 3.0125 3.6125 2.375 2.83333 2.375C2.05417 2.375 1.41667 3.0125 1.41667 3.79167C1.41667 4.57083 2.05417 5.20833 2.83333 5.20833ZM3.63375 5.9875C3.37167 5.945 3.10958 5.91667 2.83333 5.91667C2.13208 5.91667 1.46625 6.06542 0.864167 6.3275C0.34 6.55417 0 7.06417 0 7.63792V8.75H3.1875V7.60958C3.1875 7.02167 3.35042 6.46917 3.63375 5.9875ZM14.1667 5.20833C14.9458 5.20833 15.5833 4.57083 15.5833 3.79167C15.5833 3.0125 14.9458 2.375 14.1667 2.375C13.3875 2.375 12.75 3.0125 12.75 3.79167C12.75 4.57083 13.3875 5.20833 14.1667 5.20833ZM17 7.63792C17 7.06417 16.66 6.55417 16.1358 6.3275C15.5338 6.06542 14.8679 5.91667 14.1667 5.91667C13.8904 5.91667 13.6283 5.945 13.3663 5.9875C13.6496 6.46917 13.8125 7.02167 13.8125 7.60958V8.75H17V7.63792ZM11.5033 5.66875C10.6746 5.30042 9.65458 5.03125 8.5 5.03125C7.34542 5.03125 6.32542 5.3075 5.49667 5.66875C4.73167 6.00875 4.25 6.77375 4.25 7.60958V8.75H12.75V7.60958C12.75 6.77375 12.2683 6.00875 11.5033 5.66875ZM5.71625 7.33333C5.78 7.17042 5.80833 7.05708 6.36083 6.84458C7.04792 6.57542 7.77042 6.44792 8.5 6.44792C9.22958 6.44792 9.95208 6.57542 10.6392 6.84458C11.1846 7.05708 11.2129 7.17042 11.2837 7.33333H5.71625ZM8.5 1.66667C8.88958 1.66667 9.20833 1.98542 9.20833 2.375C9.20833 2.76458 8.88958 3.08333 8.5 3.08333C8.11042 3.08333 7.79167 2.76458 7.79167 2.375C7.79167 1.98542 8.11042 1.66667 8.5 1.66667ZM8.5 0.25C7.32417 0.25 6.375 1.19917 6.375 2.375C6.375 3.55083 7.32417 4.5 8.5 4.5C9.67583 4.5 10.625 3.55083 10.625 2.375C10.625 1.19917 9.67583 0.25 8.5 0.25Z" fill="#F50057"/>
</svg>
