<svg width="9" height="14" viewBox="0 0 9 14" fill="none" xmlns="http://www.w3.org/2000/svg">
<path d="M3.84132 7.10208C4.38674 6.1175 5.43507 5.53667 6.04424 4.66542C6.68882 3.75167 6.32757 2.04458 4.50007 2.04458C3.30299 2.04458 2.71507 2.95125 2.46715 3.70208L0.632568 2.93C1.13549 1.42125 2.50257 0.125 4.49299 0.125C6.15757 0.125 7.29799 0.882917 7.87882 1.83208C8.37465 2.64667 8.66507 4.16958 7.90007 5.30292C7.05007 6.55667 6.23549 6.93917 5.79632 7.74667C5.61924 8.0725 5.5484 8.285 5.5484 9.33333H3.50132C3.49424 8.78083 3.40924 7.88125 3.84132 7.10208ZM5.91674 12.1667C5.91674 12.9458 5.27924 13.5833 4.50007 13.5833C3.7209 13.5833 3.0834 12.9458 3.0834 12.1667C3.0834 11.3875 3.7209 10.75 4.50007 10.75C5.27924 10.75 5.91674 11.3875 5.91674 12.1667Z" fill="#F50057"/>
</svg>
