<svg width="15" height="15" viewBox="0 0 15 15" fill="none" xmlns="http://www.w3.org/2000/svg">
<path d="M12.7629 8.194C12.7913 7.96734 12.8125 7.74067 12.8125 7.49984C12.8125 7.259 12.7913 7.03234 12.7629 6.80567L14.2575 5.63692C14.3921 5.53067 14.4275 5.33942 14.3425 5.18359L12.9258 2.73275C12.8621 2.61942 12.7417 2.55567 12.6142 2.55567C12.5717 2.55567 12.5292 2.56275 12.4938 2.57692L10.73 3.28525C10.3617 3.00192 9.96501 2.76817 9.53292 2.59109L9.26376 0.714004C9.24251 0.544004 9.09376 0.416504 8.91668 0.416504H6.08334C5.90626 0.416504 5.75751 0.544004 5.73626 0.714004L5.46709 2.59109C5.03501 2.76817 4.63834 3.009 4.27001 3.28525L2.50626 2.57692C2.46376 2.56275 2.42126 2.55567 2.37876 2.55567C2.25834 2.55567 2.13793 2.61942 2.07418 2.73275L0.657508 5.18359C0.565425 5.33942 0.607925 5.53067 0.742508 5.63692L2.23709 6.80567C2.20876 7.03234 2.18751 7.26609 2.18751 7.49984C2.18751 7.73359 2.20876 7.96734 2.23709 8.194L0.742508 9.36275C0.607925 9.469 0.572508 9.66025 0.657508 9.81609L2.07418 12.2669C2.13793 12.3803 2.25834 12.444 2.38584 12.444C2.42834 12.444 2.47084 12.4369 2.50626 12.4228L4.27001 11.7144C4.63834 11.9978 5.03501 12.2315 5.46709 12.4086L5.73626 14.2857C5.75751 14.4557 5.90626 14.5832 6.08334 14.5832H8.91668C9.09376 14.5832 9.24251 14.4557 9.26376 14.2857L9.53292 12.4086C9.96501 12.2315 10.3617 11.9907 10.73 11.7144L12.4938 12.4228C12.5363 12.4369 12.5788 12.444 12.6213 12.444C12.7417 12.444 12.8621 12.3803 12.9258 12.2669L14.3425 9.81609C14.4275 9.66025 14.3921 9.469 14.2575 9.36275L12.7629 8.194V8.194ZM11.3604 6.98275C11.3888 7.20234 11.3958 7.35109 11.3958 7.49984C11.3958 7.64859 11.3817 7.80442 11.3604 8.01692L11.2613 8.81734L11.8917 9.31317L12.6567 9.90817L12.1608 10.7653L11.2613 10.404L10.5246 10.1065L9.88709 10.5882C9.58251 10.8148 9.29209 10.9848 9.00167 11.1053L8.25084 11.4098L8.13751 12.2103L7.99584 13.1665H7.00418L6.86959 12.2103L6.75626 11.4098L6.00543 11.1053C5.70084 10.9778 5.41751 10.8148 5.13417 10.6023L4.48959 10.1065L3.73876 10.4111L2.83918 10.7723L2.34334 9.91525L3.10834 9.32025L3.73876 8.82442L3.63959 8.024C3.61834 7.80442 3.60417 7.6415 3.60417 7.49984C3.60417 7.35817 3.61834 7.19525 3.63959 6.98275L3.73876 6.18234L3.10834 5.6865L2.34334 5.0915L2.83918 4.23442L3.73876 4.59567L4.47542 4.89317L5.11292 4.4115C5.41751 4.18484 5.70792 4.01484 5.99834 3.89442L6.74917 3.58984L6.86251 2.78942L7.00418 1.83317H7.98876L8.12334 2.78942L8.23668 3.58984L8.98751 3.89442C9.29209 4.02192 9.57542 4.18484 9.85876 4.39734L10.5033 4.89317L11.2542 4.58859L12.1538 4.22734L12.6496 5.08442L11.8917 5.6865L11.2613 6.18234L11.3604 6.98275ZM7.50001 4.6665C5.93459 4.6665 4.66667 5.93442 4.66667 7.49984C4.66667 9.06525 5.93459 10.3332 7.50001 10.3332C9.06543 10.3332 10.3333 9.06525 10.3333 7.49984C10.3333 5.93442 9.06543 4.6665 7.50001 4.6665ZM7.50001 8.9165C6.72084 8.9165 6.08334 8.279 6.08334 7.49984C6.08334 6.72067 6.72084 6.08317 7.50001 6.08317C8.27918 6.08317 8.91668 6.72067 8.91668 7.49984C8.91668 8.279 8.27918 8.9165 7.50001 8.9165Z" fill="#F50057"/>
</svg>
