<svg width="17" height="17" viewBox="0 0 17 17" fill="none" xmlns="http://www.w3.org/2000/svg">
<path d="M12.7501 8.5H9.91675V9.5625H12.7501V8.5Z" fill="#F50057"/>
<path d="M12.7501 10.625H9.91675V11.6875H12.7501V10.625Z" fill="#F50057"/>
<path d="M14.1667 4.95817H10.6251V2.83317C10.6251 2.054 9.98758 1.4165 9.20842 1.4165H7.79175C7.01258 1.4165 6.37508 2.054 6.37508 2.83317V4.95817H2.83341C2.05425 4.95817 1.41675 5.59567 1.41675 6.37484V14.1665C1.41675 14.9457 2.05425 15.5832 2.83341 15.5832H14.1667C14.9459 15.5832 15.5834 14.9457 15.5834 14.1665V6.37484C15.5834 5.59567 14.9459 4.95817 14.1667 4.95817ZM7.79175 4.95817V2.83317H9.20842V4.95817V6.37484H7.79175V4.95817ZM14.1667 14.1665H2.83341V6.37484H6.37508C6.37508 7.154 7.01258 7.7915 7.79175 7.7915H9.20842C9.98758 7.7915 10.6251 7.154 10.6251 6.37484H14.1667V14.1665Z" fill="#F50057"/>
<path d="M6.375 10.625C6.9618 10.625 7.4375 10.1493 7.4375 9.5625C7.4375 8.9757 6.9618 8.5 6.375 8.5C5.7882 8.5 5.3125 8.9757 5.3125 9.5625C5.3125 10.1493 5.7882 10.625 6.375 10.625Z" fill="#F50057"/>
<path d="M7.84833 11.4608C7.395 11.2625 6.89917 11.1562 6.375 11.1562C5.85083 11.1562 5.355 11.2625 4.90167 11.4608C4.505 11.6308 4.25 12.0133 4.25 12.4454V12.75H8.5V12.4454C8.5 12.0133 8.245 11.6308 7.84833 11.4608Z" fill="#F50057"/>
</svg>
